<svg width="2113" height="541" xmlns="http://www.w3.org/2000/svg" xmlns:xlink="http://www.w3.org/1999/xlink" xml:space="preserve" overflow="hidden"><g transform="translate(-316 -1026)"><g><text fill="#1E395F" fill-opacity="1" font-family="Inter Medium,Inter Medium_MSFontService,sans-serif" font-style="normal" font-variant="normal" font-weight="500" font-stretch="normal" font-size="248" text-anchor="start" direction="ltr" writing-mode="lr-tb" unicode-bidi="normal" text-decoration="none" transform="matrix(1 0 0 1 698.767 1339)">Bolig</text><text fill="#1E395F" fill-opacity="1" font-family="Inter ExtraBold,Inter ExtraBold_MSFontService,sans-serif" font-style="normal" font-variant="normal" font-weight="800" font-stretch="normal" font-size="248" text-anchor="start" direction="ltr" writing-mode="lr-tb" unicode-bidi="normal" text-decoration="none" transform="matrix(1 0 0 1 1289.44 1339)">klarhed</text><text fill="#1E395F" fill-opacity="1" font-family="Inter ExtraBold,Inter ExtraBold_MSFontService,sans-serif" font-style="normal" font-variant="normal" font-weight="800" font-stretch="normal" font-size="248" text-anchor="start" direction="ltr" writing-mode="lr-tb" unicode-bidi="normal" text-decoration="none" transform="matrix(1 0 0 1 2222.15 1339)"> </text><rect x="320" y="1260" width="303" height="217" fill="#1E395F" fill-opacity="1"/><path d="M320 1260 471.5 1129 623 1260Z" fill="#1E395F" fill-rule="evenodd" fill-opacity="1"/><text fill="#63738F" fill-opacity="1" font-family="Inter,Inter_MSFontService,sans-serif" font-style="normal" font-variant="normal" font-weight="400" font-stretch="normal" font-size="101" text-anchor="start" direction="ltr" writing-mode="lr-tb" unicode-bidi="normal" text-decoration="none" transform="matrix(1 0 0 1 711.459 1482)">Klarhed</text><text fill="#63738F" fill-opacity="1" font-family="Inter,Inter_MSFontService,sans-serif" font-style="normal" font-variant="normal" font-weight="400" font-stretch="normal" font-size="101" text-anchor="start" direction="ltr" writing-mode="lr-tb" unicode-bidi="normal" text-decoration="none" transform="matrix(1 0 0 1 1080.42 1482)"> </text><text fill="#63738F" fill-opacity="1" font-family="Inter,Inter_MSFontService,sans-serif" font-style="normal" font-variant="normal" font-weight="400" font-stretch="normal" font-size="101" text-anchor="start" direction="ltr" writing-mode="lr-tb" unicode-bidi="normal" text-decoration="none" transform="matrix(1 0 0 1 1109.06 1482)">over</text><text fill="#63738F" fill-opacity="1" font-family="Inter,Inter_MSFontService,sans-serif" font-style="normal" font-variant="normal" font-weight="400" font-stretch="normal" font-size="101" text-anchor="start" direction="ltr" writing-mode="lr-tb" unicode-bidi="normal" text-decoration="none" transform="matrix(1 0 0 1 1318.75 1482)"> </text><text fill="#63738F" fill-opacity="1" font-family="Inter,Inter_MSFontService,sans-serif" font-style="normal" font-variant="normal" font-weight="400" font-stretch="normal" font-size="101" text-anchor="start" direction="ltr" writing-mode="lr-tb" unicode-bidi="normal" text-decoration="none" transform="matrix(1 0 0 1 1347.4 1482)">din</text><text fill="#63738F" fill-opacity="1" font-family="Inter,Inter_MSFontService,sans-serif" font-style="normal" font-variant="normal" font-weight="400" font-stretch="normal" font-size="101" text-anchor="start" direction="ltr" writing-mode="lr-tb" unicode-bidi="normal" text-decoration="none" transform="matrix(1 0 0 1 1493.49 1482)"> </text><text fill="#63738F" fill-opacity="1" font-family="Inter,Inter_MSFontService,sans-serif" font-style="normal" font-variant="normal" font-weight="400" font-stretch="normal" font-size="101" text-anchor="start" direction="ltr" writing-mode="lr-tb" unicode-bidi="normal" text-decoration="none" transform="matrix(1 0 0 1 1522.14 1482)">boligøkonomi</text><text fill="#63738F" fill-opacity="1" font-family="Inter,Inter_MSFontService,sans-serif" font-style="normal" font-variant="normal" font-weight="400" font-stretch="normal" font-size="101" text-anchor="start" direction="ltr" writing-mode="lr-tb" unicode-bidi="normal" text-decoration="none" transform="matrix(1 0 0 1 2163.8 1482)"> </text><g><g><g><path d="M537.656 1308.39C517.125 1286.03 494.997 1301.32 478.116 1305.19 477.659 1299.72 476.291 1294.7 474.694 1289.91 481.766 1289.22 492.259 1286.94 499.559 1279.42 511.422 1267.55 510.281 1247.48 510.281 1247.48 510.281 1247.48 489.978 1246.34 478.344 1258.2 472.869 1263.67 470.131 1270.97 468.762 1277.36 458.725 1260.48 444.125 1251.58 443.212 1250.9L436.141 1262.53C436.369 1262.76 461.006 1278.05 464.428 1304.97 447.775 1300.86 425.419 1286.03 405.344 1308.16 383.216 1332.57 402.15 1457.58 471.728 1423.13 541.078 1457.81 559.784 1332.8 537.656 1308.39Z" fill="#FFFFFF" fill-rule="nonzero" fill-opacity="1"/></g></g></g></g></g></svg>