<svg width="2108" height="549" xmlns="http://www.w3.org/2000/svg" xmlns:xlink="http://www.w3.org/1999/xlink" xml:space="preserve" overflow="hidden"><g transform="translate(-59 13)"><g><text fill="#1E395F" fill-opacity="1" font-family="Inter Medium,Inter Medium_MSFontService,sans-serif" font-style="normal" font-variant="normal" font-weight="500" font-stretch="normal" font-size="248" text-anchor="start" direction="ltr" writing-mode="lr-tb" unicode-bidi="normal" text-decoration="none" transform="matrix(1 0 0 1 438.951 300)">Bolig</text><text fill="#1E395F" fill-opacity="1" font-family="Inter ExtraBold,Inter ExtraBold_MSFontService,sans-serif" font-style="normal" font-variant="normal" font-weight="800" font-stretch="normal" font-size="248" text-anchor="start" direction="ltr" writing-mode="lr-tb" unicode-bidi="normal" text-decoration="none" transform="matrix(1 0 0 1 1029.63 300)">klarhed</text><text fill="#1E395F" fill-opacity="1" font-family="Inter ExtraBold,Inter ExtraBold_MSFontService,sans-serif" font-style="normal" font-variant="normal" font-weight="800" font-stretch="normal" font-size="248" text-anchor="start" direction="ltr" writing-mode="lr-tb" unicode-bidi="normal" text-decoration="none" transform="matrix(1 0 0 1 1962.34 300)"> </text><rect x="60.0002" y="221" width="303" height="217" fill="#1E395F" fill-opacity="1"/><path d="M60.0002 221 211.5 90.0001 363 221Z" fill="#1E395F" fill-rule="evenodd" fill-opacity="1"/><text fill="#63738F" fill-opacity="1" font-family="Inter,Inter_MSFontService,sans-serif" font-style="normal" font-variant="normal" font-weight="400" font-stretch="normal" font-size="105" text-anchor="start" direction="ltr" writing-mode="lr-tb" unicode-bidi="normal" text-decoration="none" transform="matrix(1 0 0 1 451.643 446)">Klarhed</text><text fill="#63738F" fill-opacity="1" font-family="Inter,Inter_MSFontService,sans-serif" font-style="normal" font-variant="normal" font-weight="400" font-stretch="normal" font-size="105" text-anchor="start" direction="ltr" writing-mode="lr-tb" unicode-bidi="normal" text-decoration="none" transform="matrix(1 0 0 1 833.778 446)"> </text><text fill="#63738F" fill-opacity="1" font-family="Inter,Inter_MSFontService,sans-serif" font-style="normal" font-variant="normal" font-weight="400" font-stretch="normal" font-size="105" text-anchor="start" direction="ltr" writing-mode="lr-tb" unicode-bidi="normal" text-decoration="none" transform="matrix(1 0 0 1 862.997 446)">over</text><text fill="#63738F" fill-opacity="1" font-family="Inter,Inter_MSFontService,sans-serif" font-style="normal" font-variant="normal" font-weight="400" font-stretch="normal" font-size="105" text-anchor="start" direction="ltr" writing-mode="lr-tb" unicode-bidi="normal" text-decoration="none" transform="matrix(1 0 0 1 1080.71 446)"> </text><text fill="#63738F" fill-opacity="1" font-family="Inter,Inter_MSFontService,sans-serif" font-style="normal" font-variant="normal" font-weight="400" font-stretch="normal" font-size="105" text-anchor="start" direction="ltr" writing-mode="lr-tb" unicode-bidi="normal" text-decoration="none" transform="matrix(1 0 0 1 1109.92 446)">din</text><text fill="#63738F" fill-opacity="1" font-family="Inter,Inter_MSFontService,sans-serif" font-style="normal" font-variant="normal" font-weight="400" font-stretch="normal" font-size="105" text-anchor="start" direction="ltr" writing-mode="lr-tb" unicode-bidi="normal" text-decoration="none" transform="matrix(1 0 0 1 1261.17 446)"> </text><text fill="#63738F" fill-opacity="1" font-family="Inter,Inter_MSFontService,sans-serif" font-style="normal" font-variant="normal" font-weight="400" font-stretch="normal" font-size="105" text-anchor="start" direction="ltr" writing-mode="lr-tb" unicode-bidi="normal" text-decoration="none" transform="matrix(1 0 0 1 1290.39 446)">boligøkonomi</text><text fill="#63738F" fill-opacity="1" font-family="Inter,Inter_MSFontService,sans-serif" font-style="normal" font-variant="normal" font-weight="400" font-stretch="normal" font-size="105" text-anchor="start" direction="ltr" writing-mode="lr-tb" unicode-bidi="normal" text-decoration="none" transform="matrix(1 0 0 1 1952.68 446)"> </text><g><g><g><path d="M175.656 79.3875C155.125 57.0312 132.997 72.3156 116.116 76.1937 115.659 70.7187 114.291 65.7 112.694 60.9094 119.766 60.225 130.259 57.9437 137.559 50.4156 149.422 38.5531 148.281 18.4781 148.281 18.4781 148.281 18.4781 127.978 17.3375 116.344 29.2 110.869 34.675 108.131 41.975 106.762 48.3625 96.725 31.4812 82.125 22.5844 81.2125 21.9L74.1406 33.5344C74.3687 33.7625 99.0062 49.0469 102.428 75.9656 85.775 71.8594 63.4187 57.0312 43.3437 79.1594 21.2156 103.569 40.15 228.581 109.728 194.134 179.078 228.809 197.784 103.797 175.656 79.3875Z" fill="#FFFFFF" fill-rule="nonzero" fill-opacity="1" transform="matrix(1 0 0 1.00457 102 189)"/></g></g></g></g></g></svg>
