<svg xmlns="http://www.w3.org/2000/svg" viewBox="0 0 308 48" role="img" aria-label="Boligklarhed">

  <path d="M35 15.5 L22 5.5 L9 15.5 V37 Q9 40 12 40 H24" fill="none" stroke="#1E3A5F" stroke-width="3" stroke-linecap="round" stroke-linejoin="round"/>
  <rect x="14" y="20" width="4" height="4" fill="#1E3A5F"/><rect x="20" y="20" width="4" height="4" fill="#1E3A5F"/>
  <rect x="14" y="26" width="4" height="4" fill="#1E3A5F"/><rect x="20" y="26" width="4" height="4" fill="#1E3A5F"/>
  <circle cx="33" cy="29" r="8" fill="none" stroke="#B08A45" stroke-width="3.2"/>
  <line x1="38.8" y1="34.8" x2="44" y2="40" stroke="#B08A45" stroke-width="3.6" stroke-linecap="round"/>
  <g transform="translate(62 34) scale(0.27490)">
    <path d="M6.59 0L6.59 -72.75L35.45 -72.75Q47.41 -72.75 53.44 -67.48Q59.47 -62.21 59.47 -54.05Q59.47 -47.61 55.74 -43.65Q52 -39.7 46.39 -38.43L46.39 -37.7Q50.49 -37.5 54.13 -35.35Q57.76 -33.2 60.03 -29.32Q62.3 -25.44 62.3 -20.07Q62.3 -14.31 59.47 -9.77Q56.64 -5.22 51.07 -2.61Q45.51 0 37.3 0ZM21.48 -12.26L34.38 -12.26Q40.97 -12.26 43.97 -14.79Q46.97 -17.33 46.97 -21.48Q46.97 -26.03 43.68 -29Q40.38 -31.98 34.77 -31.98L21.48 -31.98ZM21.48 -42.19L33.25 -42.19Q38.04 -42.19 41.21 -44.73Q44.38 -47.27 44.38 -51.66Q44.38 -55.62 41.58 -58.11Q38.77 -60.6 33.54 -60.6L21.48 -60.6Z M113.69 0.98Q104.07 0.98 96.38 -3.42Q88.69 -7.81 84.22 -16.16Q79.75 -24.51 79.75 -36.33Q79.75 -48.19 84.22 -56.57Q88.69 -64.94 96.38 -69.34Q104.07 -73.73 113.69 -73.73Q123.36 -73.73 131.02 -69.34Q138.69 -64.94 143.16 -56.57Q147.62 -48.19 147.62 -36.33Q147.62 -24.46 143.16 -16.14Q138.69 -7.81 131.02 -3.42Q123.36 0.98 113.69 0.98ZM113.69 -12.26Q122.18 -12.26 127.33 -18.43Q132.49 -24.61 132.49 -36.33Q132.49 -48.1 127.33 -54.3Q122.18 -60.5 113.69 -60.5Q105.24 -60.5 100.06 -54.27Q94.89 -48.05 94.89 -36.33Q94.89 -24.66 100.06 -18.46Q105.24 -12.26 113.69 -12.26Z M167.8 0L167.8 -72.75L182.7 -72.75L182.7 -12.35L214.09 -12.35L214.09 0Z M248.24 -72.75L248.24 0L233.35 0L233.35 -72.75Z M302.65 0.98Q292.45 0.98 284.73 -3.54Q277.02 -8.06 272.72 -16.41Q268.42 -24.76 268.42 -36.28Q268.42 -48.05 272.89 -56.45Q277.36 -64.84 285.05 -69.29Q292.74 -73.73 302.31 -73.73Q310.51 -73.73 317.15 -70.61Q323.79 -67.48 328.04 -61.99Q332.29 -56.49 333.31 -49.32L318.18 -49.32Q316.62 -54.54 312.61 -57.52Q308.61 -60.5 302.55 -60.5Q294.15 -60.5 288.86 -54.25Q283.56 -48 283.56 -36.43Q283.56 -24.85 288.78 -18.55Q294.01 -12.26 302.75 -12.26Q310.51 -12.26 314.96 -16.36Q319.4 -20.46 319.59 -27.44L303.77 -27.44L303.77 -38.77L334.05 -38.77L334.05 -29.69Q334.05 -20.12 329.99 -13.26Q325.94 -6.4 318.86 -2.71Q311.78 0.98 302.65 0.98Z M354.47 0L354.47 -72.75L369.37 -72.75L369.37 -52.88L369.12 -36.33Q371.51 -40.14 374.2 -43.8Q376.88 -47.46 380.5 -51.86L398.32 -72.75L416.53 -72.75L389.34 -41.26L417.31 0L399.69 0L379.03 -31.45L369.37 -20.8L369.37 0Z M435.4 0L435.4 -72.75L450.29 -72.75L450.29 -12.35L481.69 -12.35L481.69 0Z M496.74 0L521.59 -72.75L541.13 -72.75L566.61 0L550.06 0L544.45 -16.89L518.62 -16.89L513.2 0ZM522.33 -28.56L540.59 -28.56L538.39 -35.11Q536.63 -40.67 534.88 -47.17Q533.12 -53.66 531.21 -61.08Q529.41 -53.56 527.75 -47.07Q526.09 -40.58 524.43 -35.11Z M584.6 0L584.6 -72.75L612.97 -72.75Q625.37 -72.75 632.18 -66.28Q638.99 -59.81 638.99 -49.07Q638.99 -41.6 635.67 -36.3Q632.35 -31.01 626.1 -28.37L641.58 0L625.08 0L611.21 -25.98L599.49 -25.98L599.49 0ZM599.49 -38.04L610.23 -38.04Q623.61 -38.04 623.61 -49.07Q623.61 -54.59 620.32 -57.52Q617.02 -60.45 610.18 -60.45L599.49 -60.45Z M659.27 0L659.27 -72.75L674.16 -72.75L674.16 -43.36L705.85 -43.36L705.85 -72.75L720.79 -72.75L720.79 0L705.85 0L705.85 -31.01L674.16 -31.01L674.16 0Z M742.98 0L742.98 -72.75L791.66 -72.75L791.66 -60.4L757.87 -60.4L757.87 -42.82L789.12 -42.82L789.12 -30.66L757.87 -30.66L757.87 -12.35L791.76 -12.35L791.76 0Z M838.31 0L812.72 0L812.72 -72.75L838.55 -72.75Q849.49 -72.75 857.37 -68.38Q865.26 -64.01 869.51 -55.88Q873.76 -47.75 873.76 -36.43Q873.76 -25.05 869.51 -16.89Q865.26 -8.74 857.3 -4.37Q849.34 0 838.31 0ZM827.61 -12.84L837.57 -12.84Q848.07 -12.84 853.49 -18.51Q858.91 -24.17 858.91 -36.43Q858.91 -48.63 853.52 -54.27Q848.12 -59.91 837.67 -59.91L827.61 -59.91Z" fill="#1E3A5F"/>
  </g>
</svg>